<?xml version="1.0" encoding="UTF-8" standalone="no"?>
<!-- Created with Inkscape (http://www.inkscape.org/) -->

<svg
   width="16"
   height="16"
   viewBox="0 0 16 16"
   version="1.1"
   id="svg1"
   xml:space="preserve"
   xmlns="http://www.w3.org/2000/svg"
   xmlns:svg="http://www.w3.org/2000/svg"><defs
     id="defs1" /><g
     id="layer1"><g
       id="g9"
       transform="matrix(1.6440118,0,0,1.6440117,-2.2807415,-1.4124338)"><path
         id="path1"
         style="display:inline;fill:#000000;fill-rule:evenodd;stroke:none;stroke-width:0.08"
         d="M 6.15625,1.5449219 4.0429688,2.7265625 C 3.3431673,2.2691864 2.207592,2.3219568 2.0214844,3.0664062 v 2.9316407 c 0.03911,0.7103534 -0.3471713,1.6747283 0.9257812,1.9023437 L 3.5449219,7.6328125 c 0.5603809,0.5755264 1.0008644,1.3168549 1.6796875,1.7265625 0.383074,0.3928334 0.7134446,0.683941 1.3867187,0.4785156 l 3.6796879,-2.25 c 0.755255,-1.3550094 -0.6234471,-2.3570697 -1.2500004,-2 L 7.1894531,3.4296875 C 7.7121822,2.5957995 7.3474985,1.5546219 6.15625,1.5449219 Z M 6.328125,1.75 C 7.1941766,1.895503 7.3404989,2.4335947 7.0625,3.203125 L 4.2265625,4.8125 4.1875,2.9375 Z M 3.0859375,2.6679688 c 0.016942,-7.15e-5 0.033142,0.00154 0.048828,0.00195 0.2149832,0.00568 0.5624122,0.068872 0.5800782,0.2832031 C 3.7335729,3.1803561 3.385757,3.3372805 3.1582031,3.3515625 2.887672,3.3685419 2.4289451,3.2356206 2.4414062,2.9648438 2.4522272,2.7297105 2.8318059,2.6690409 3.0859375,2.6679688 Z M 2.2597656,3.3632812 c 0.1098045,0.080696 0.2202737,0.1142722 0.3300782,0.1347657 l 0.011719,0.5 0.3066406,0.011719 0.021484,-0.4199218 c 0.3889829,0.045599 0.7131749,-0.061137 1.0117187,-0.2265626 l 0.023438,2.53125 C 3.6999077,6.1066768 3.3435238,6.2277703 2.8066406,6.1679688 V 5.7246094 L 2.4765625,5.7597656 2.4648438,6.0761719 2.203125,5.9179688 l 0.035156,-1.125 c 0.159487,0.1226518 0.3437829,0.1188138 0.5332032,0.091797 l -0.033203,-0.25 C 2.5356842,4.6366861 2.393603,4.5785588 2.25,4.5214844 Z m 4.6816406,0.2265626 0.7382813,0.7949218 -0.421875,0.3183594 0.2382813,0.25 L 7.9394531,4.6582031 8.0996094,4.8164062 7.8046875,5.1113281 7.9746094,5.3730469 8.3144531,5.15625 8.8027344,5.7929688 5.6113281,7.7578125 C 5.1243934,8.12452 5.2342004,8.6418861 5.3378906,9.15625 4.854452,8.772854 4.4433201,8.3307253 4.1113281,7.8261719 L 4.6679688,7.4394531 4.4746094,7.2011719 3.8515625,7.5546875 C 3.4197014,6.9533884 2.983216,6.4251858 2.5214844,6.4511719 2.8920355,6.7782322 3.2814759,7.1007794 3.4765625,7.4863281 L 3.0332031,7.7011719 c -1.1794448,-0.2901927 -0.8593525,-1.2515012 -0.75,-1.4414063 1.9159195,0.4352719 1.9568092,-0.2803535 1.9082031,-1.125 z m 2.4570313,2.2128906 c 0.4831538,0.00383 1.2471435,0.6619252 0.7656245,1.5664062 L 9.8886719,7.546875 9.7558594,7.1269531 9.578125,7.2265625 9.5898438,7.7441406 7.8007812,8.8066406 7.734375,8.3535156 7.5136719,8.4511719 7.5351562,8.9609375 7.0605469,9.2480469 C 7.1014643,8.6075767 6.8896441,8.0483912 6.0214844,7.7011719 L 7.2695312,6.9492188 7.6796875,7.1699219 7.9550781,6.9277344 7.7558594,6.7617188 9.2578125,5.8222656 c 0.042254,-0.014074 0.090644,-0.019928 0.140625,-0.019531 z M 5.9238281,8.0253906 c 0.3473948,-0.00757 0.740787,0.3798977 0.8496094,0.7148438 0.1025762,0.3157212 -0.015928,0.8361079 -0.3320313,0.9375 C 6.0989537,9.7875783 5.6873164,9.395604 5.5566406,9.0605469 5.4319606,8.740863 5.4600825,8.1805648 5.7792969,8.0546875 5.8261007,8.036231 5.8742004,8.0264727 5.9238281,8.0253906 Z" /><path
         style="fill:#000000;fill-rule:evenodd;stroke:#000000;stroke-width:0.08"
         d="M 2.8146002,3.0066268 C 2.7895529,2.9145804 2.9795305,2.8964335 3.0744221,2.886661 3.1714541,2.876671 3.3657922,2.855266 3.3595289,2.952609 3.3478089,3.1347655 2.8625275,3.1827552 2.8146002,3.0066268 Z"
         id="path5" /><path
         style="fill:#000000;fill-rule:evenodd;stroke:#000000;stroke-width:0.08"
         d="M 5.7673397,8.4742328 C 5.8293369,8.8789601 5.8965858,9.2790923 6.4192037,9.2807765 6.5129884,8.9082377 6.2922696,8.6405334 5.7673397,8.4742328 Z"
         id="path9" /></g></g></svg>
