<?xml version="1.0" encoding="UTF-8" standalone="no"?>
<!-- Created with Inkscape (http://www.inkscape.org/) -->

<svg
   width="16"
   height="16"
   viewBox="0 0 16 16"
   version="1.1"
   id="svg1"
   xml:space="preserve"
   xmlns="http://www.w3.org/2000/svg"
   xmlns:svg="http://www.w3.org/2000/svg"><defs
     id="defs1" /><g
     id="layer1"><g
       id="g2"
       transform="matrix(0.87597985,0,0,0.87497126,-0.6116864,-0.94816665)"
       style="stroke-width:0.475141;stroke-dasharray:none"><path
         style="fill:none;fill-rule:evenodd;stroke:#000000;stroke-width:0.461636;stroke-dasharray:none"
         d="m 14.304962,14.048394 h -2.003465 c -0.0059,-0.252613 0.120053,-0.470017 0.06118,-0.658368 -0.241887,-0.77397 -1.048463,-1.160128 -1.713723,-1.175216 -0.6652599,-0.01508 -1.599645,0.561809 -1.9445953,1.010671 l 0.045533,0.822913 -2.0945316,0.04842 -0.045534,-0.774508 C 7.5562565,12.558458 8.2166961,11.87062 8.4766956,11.289212 8.4816144,10.7156 8.3469369,10.240929 7.8392293,10.030637 L 7.7937007,6.351724 h 9.7441253 l 0.04554,1.3069818 c -1.576142,0.037634 -4.532072,1.9414966 -4.802145,2.8418192 -0.270072,0.900322 0.723066,2.218293 1.523749,2.724956 z"
         id="path1" /><path
         id="rect1"
         style="fill:none;fill-rule:evenodd;stroke:#000000;stroke-width:0.461636;stroke-dasharray:none"
         d="M 6.1950017,6.4162524 H 7.1287119 V 9.907583 H 6.1950017 Z" /><path
         style="fill:none;fill-rule:evenodd;stroke:#000000;stroke-width:0.461636;stroke-dasharray:none"
         d="m 2.2970549,6.4847098 c 0.944774,1.3141608 1.9661509,2.4450884 3.2518873,2.9436707 L 5.4523514,6.5531672 Z"
         id="path2" /></g></g></svg>
