<?xml version="1.0" encoding="UTF-8" standalone="no"?>
<!-- Created with Inkscape (http://www.inkscape.org/) -->

<svg
   width="15.999999"
   height="15.999999"
   viewBox="0 0 4.233333 4.233333"
   version="1.1"
   id="svg1"
   xml:space="preserve"
   xmlns="http://www.w3.org/2000/svg"
   xmlns:svg="http://www.w3.org/2000/svg"><defs
     id="defs1" /><g
     id="layer1"><g
       id="g16"
       style="display:inline"
       transform="matrix(1.585284,0,0,1.585284,-1.245007,-1.080859)"><path
         style="fill:none;fill-rule:evenodd;stroke:#000000;stroke-width:0.0693882;stroke-dasharray:none"
         d="M 1.863228,2.7473595 C 2.0633126,3.0473256 2.2234325,2.9276625 2.3794726,2.7651607 2.4501704,2.5617348 2.2953565,2.5325681 2.1243172,2.5159391 1.9314621,2.5421263 1.7593371,2.5782946 1.863228,2.7473595 Z"
         id="path1" /><path
         style="fill:#000000;fill-opacity:1;fill-rule:evenodd;stroke:#000000;stroke-width:0.0211667"
         d="m 2.1213503,2.6850541 c 0.1788023,-0.00175 0.1576086,-0.065396 0.1794989,-0.1157099 -0.1401934,-0.068725 -0.2561654,-0.049648 -0.3649316,-0.00445 0.026877,0.07195 0.068548,0.1303912 0.1854327,0.1201599 z"
         id="path2" /><path
         style="fill:none;fill-opacity:1;fill-rule:evenodd;stroke:#000000;stroke-width:0.0693882;stroke-dasharray:none"
         d="M 2.1231069,2.9454961 C 2.412043,2.9932688 2.5397145,2.7936063 2.7105279,2.6266105 2.8265385,2.4433162 2.8490365,2.1665093 2.8909499,1.9091179 2.626373,1.6573134 2.3825111,1.6540887 2.1398904,1.6657578 1.8518179,1.6615112 1.5666197,1.6671191 1.3552639,1.9259013 1.3896501,2.2031677 1.4383782,2.4374084 1.506315,2.6140229 1.6588792,2.7828912 1.8293182,2.9613061 2.1231069,2.9454961 Z"
         id="path3" /><path
         style="fill:none;fill-opacity:1;fill-rule:evenodd;stroke:#000000;stroke-width:0.0693882;stroke-dasharray:none"
         d="m 2.4252091,2.4503842 c 0.3143871,0.042664 0.3234186,-0.5169393 0.058742,-0.490916 -0.1863659,0.00638 -0.2976789,0.405377 -0.058742,0.490916 z"
         id="path4" /><path
         style="fill:none;fill-opacity:1;fill-rule:evenodd;stroke:#000000;stroke-width:0.0693882;stroke-dasharray:none"
         d="M 1.7370875,2.458776 C 2.0901275,2.409339 1.9445567,1.9455573 1.7496751,1.9552724 1.5911205,1.8980393 1.4141735,2.3318846 1.7370875,2.458776 Z"
         id="path5" /><path
         style="display:inline;fill:#000000;fill-opacity:1;fill-rule:evenodd;stroke:#000000;stroke-width:0.0211667"
         d="m 1.7571468,2.0893435 c -0.03896,-0.016548 -0.065593,0.012755 -0.071459,0.034814 0.00267,0.079604 0.00148,0.1379756 0.023077,0.2202828 0.042942,0.020097 0.082917,0.021406 0.1174842,-0.011539 0.00831,-0.058885 -0.00733,-0.1089105 -0.012298,-0.1789832 -0.06851,0.00723 -0.056075,-0.041013 -0.056804,-0.064575 z"
         id="path6" /><path
         style="display:inline;fill:#000000;fill-opacity:1;fill-rule:evenodd;stroke:#000000;stroke-width:0.0211667"
         d="m 2.4975877,2.0968828 c -0.025582,-8.032e-4 -0.053222,-0.00241 -0.069232,0.029372 -0.017053,0.075526 -0.03509,0.1122394 -0.026224,0.1877649 0.015236,0.021159 0.045034,0.056884 0.1090925,0.033567 0.021039,-0.050238 0.038835,-0.09502 0.037763,-0.1867159 -0.038035,0.00287 -0.066029,-0.00588 -0.0514,-0.063988 z"
         id="path7" /><path
         style="fill:none;fill-opacity:1;fill-rule:evenodd;stroke:#000000;stroke-width:0.0693882;stroke-dasharray:none"
         d="M 2.797422,2.4388302 C 2.8830584,2.4344703 2.9601885,2.4017559 3.037805,2.3706629 2.9650448,2.33677 2.8944894,2.3072867 2.8299554,2.2898462 Z"
         id="path8" /><path
         style="fill:none;fill-opacity:1;fill-rule:evenodd;stroke:#000000;stroke-width:0.0693882;stroke-dasharray:none"
         d="m 2.8391954,2.2708722 c 0.063716,0.00201 0.1110063,-0.017296 0.1692388,-0.034477 C 2.9608811,2.1759246 2.9133279,2.161939 2.8657748,2.1314986 Z"
         id="path9" /><path
         style="fill:none;fill-opacity:1;fill-rule:evenodd;stroke:#000000;stroke-width:0.0693882;stroke-dasharray:none"
         d="m 1.3804391,2.1147152 c -0.052173,0.033603 -0.1196118,0.054121 -0.1468553,0.1090924 0.028482,0.02322 0.079235,0.034757 0.1707579,0.054037 z"
         id="path10" /><path
         style="display:inline;fill:none;fill-opacity:1;fill-rule:evenodd;stroke:#000000;stroke-width:0.0693882;stroke-dasharray:none"
         d="m 1.412957,2.2940883 c -0.072836,0.017705 -0.1702547,0.02979 -0.2162052,0.0667 0.075682,0.034061 0.1595691,0.063199 0.255017,0.0854 z"
         id="path11" /><path
         style="fill:none;fill-opacity:1;fill-rule:evenodd;stroke:#000000;stroke-width:0.0693882;stroke-dasharray:none"
         d="M 1.3563928,1.897196 C 1.2907924,1.6033947 1.5362347,1.340091 1.6984143,1.0903762 1.7919301,1.2374069 1.8095147,1.4712163 1.8533471,1.6750282 1.6562888,1.6862705 1.4910888,1.7612293 1.3563928,1.897196 Z"
         id="path12" /><path
         style="fill:none;fill-opacity:1;fill-rule:evenodd;stroke:#000000;stroke-width:0.0693882;stroke-dasharray:none"
         d="M 2.8823348,1.8884262 C 2.8790879,1.5976497 2.7721867,1.3305656 2.4964644,1.1020691 2.4419222,1.2759035 2.3941229,1.4304248 2.3970735,1.6545654 2.5635093,1.6763341 2.7236184,1.7740237 2.8823348,1.8884262 Z"
         id="path13" /><path
         style="fill:#000000;fill-opacity:1;fill-rule:evenodd;stroke:#000000;stroke-width:0.0211667"
         d="M 1.7445963,1.6308123 C 1.6136602,1.6110304 1.5346257,1.6604507 1.442806,1.692824 1.5042967,1.539929 1.5821915,1.3935955 1.6784505,1.2546078 Z"
         id="path14" /><path
         style="fill:#000000;fill-opacity:1;fill-rule:evenodd;stroke:#000000;stroke-width:0.0211667"
         d="M 2.4763346,1.6123047 2.5383463,1.2567708 C 2.6388911,1.4079102 2.7309192,1.5590496 2.7900825,1.710189 2.6881096,1.685383 2.622028,1.6079637 2.4763346,1.6123047 Z"
         id="path15" /><path
         style="fill:none;fill-opacity:1;fill-rule:evenodd;stroke:#000000;stroke-width:0.0211667"
         d="m 2.1218343,2.670638 -0.0031,0.1436605"
         id="path16" /></g></g></svg>
