<?xml version="1.0" encoding="UTF-8" standalone="no"?>
<!-- Created with Inkscape (http://www.inkscape.org/) -->

<svg
   width="256"
   height="256"
   viewBox="0 0 67.733334 67.733334"
   version="1.1"
   id="svg1"
   xml:space="preserve"
   xmlns="http://www.w3.org/2000/svg"
   xmlns:svg="http://www.w3.org/2000/svg"><defs
     id="defs1" /><g
     id="layer1"><g
       id="g569"
       transform="translate(0.23283951,-2.4930646)"><g
         id="g568"
         transform="matrix(1.3145344,0,0,1.3145344,16.96443,32.621868)"><path
           id="path566"
           style="display:inline;fill:#ffffff;stroke-width:0.264583"
           d="M 23.8,8.5 13.81,14.239619 3.8,8.5 13.811693,2.6798418" /><path
           id="path567"
           style="fill:#cccccc;fill-opacity:1;stroke-width:0.264583"
           d="m 17.160813,21.381923 -10.0000003,5.64 -0.01,-11.56 9.9900003,-5.7400001"
           transform="translate(6.6591873,-1.2219229)" /><path
           id="path568"
           style="fill:#999999;fill-opacity:1;stroke-width:0.264583"
           d="m -2.8391873,21.381923 10,5.64 -0.01,-11.56 -10.01,-5.7400001"
           transform="translate(6.6591873,-1.2219229)" /></g><g
         id="g565"
         transform="matrix(1.3145344,0,0,1.3145344,21.437538,17.427186)"><path
           id="path563"
           style="display:inline;fill:#ffffff;stroke-width:0.264583"
           d="M 23.8,8.5 13.81,14.239619 3.8,8.5 13.811693,2.6798418" /><path
           id="path564"
           style="fill:#cccccc;fill-opacity:1;stroke-width:0.264583"
           d="m 17.160813,21.381923 -10.0000003,5.64 -0.01,-11.56 9.9900003,-5.7400001"
           transform="translate(6.6591873,-1.2219229)" /><path
           id="path565"
           style="fill:#999999;fill-opacity:1;stroke-width:0.264583"
           d="m -2.8391873,21.381923 10,5.64 -0.01,-11.56 -10.01,-5.7400001"
           transform="translate(6.6591873,-1.2219229)" /></g><g
         id="g563"
         transform="matrix(1.3145344,0,0,1.3145344,15.872676,2.6598626)"><path
           id="rect559"
           style="fill:#ffffff;stroke-width:0.264583"
           d="M 23.8,8.5 13.81,14.239619 3.8,8.5 13.811693,2.6798418" /><path
           id="path559"
           style="fill:#cccccc;fill-opacity:1;stroke-width:0.264583"
           d="m 17.160813,21.381923 -10.0000003,5.64 -0.01,-11.56 9.9900003,-5.7400001"
           transform="translate(6.6591873,-1.2219229)" /><path
           id="path560"
           style="fill:#999999;fill-opacity:1;stroke-width:0.264583"
           d="m -2.8391873,21.381923 10,5.64 -0.01,-11.56 -10.01,-5.7400001"
           transform="translate(6.6591873,-1.2219229)" /></g></g></g></svg>
